PathFileType   4   (X/Y/Z)
DataRate  CameraRate  NumFrames  NumMarkers  Units  OrigDataRate  OrigDataStartFrame  OrigNumFrames  
  120.0      120.0        6         37         mm      120.0          1        134
Frame#      Time                    midhip                           hip_r                           hip_l                          knee_r                          knee_l                         ankle_r                         ankle_l                         midasis                          asis_r                          asis_l                          psis_r                          psis_l                    epicondLat_r                    epicondLat_l                    epicondMed_r                    epicondMed_l                  malleolusLat_r                  malleolusLat_l                 malleolusMedv_r                 malleolusMedv_l                    sternalnotch                  xyphoidprocess                            neck                           toe_r                           toe_l                     thighwand_r                     thighwand_l                     upperleg1_r                     upperleg1_l                     upperleg2_r                     upperleg2_l                     shankwand_r                     shankwand_l                     lowerleg1_r                     lowerleg1_l                   subclavicle_r                   subclavicle_l            
              X1          Y1          Z1          X2          Y2          Z2          X3          Y3          Z3          X4          Y4          Z4          X5          Y5          Z5          X6          Y6          Z6          X7          Y7          Z7          X8          Y8          Z8          X9          Y9          Z9          X10          Y10          Z10          X11          Y11          Z11          X12          Y12          Z12          X13          Y13          Z13          X14          Y14          Z14          X15          Y15          Z15          X16          Y16          Z16          X17          Y17          Z17          X18          Y18          Z18          X19          Y19          Z19          X20          Y20          Z20          X21          Y21          Z21          X22          Y22          Z22          X23          Y23          Z23          X24          Y24          Z24          X25          Y25          Z25          X26          Y26          Z26          X27          Y27          Z27          X28          Y28          Z28          X29          Y29          Z29          X30          Y30          Z30          X31          Y31          Z31          X32          Y32          Z32          X33          Y33          Z33          X34          Y34          Z34          X35          Y35          Z35          X36          Y36          Z36          X37          Y37          Z37          

	1	0.15000	1377.735	757.197	-235.704	1368.568	752.247	-179.229	1386.903	762.146	-292.179	1288.630	409.718	-139.776	1428.736	415.177	-281.625	1045.061	146.561	-145.578	1479.533	66.211	-266.342	1413.058	828.540	-224.182	1410.784	824.761	-112.404	1415.331	832.319	-335.959	1236.530	860.006	-196.898	1236.915	859.055	-250.392	1298.245	405.844	-80.707	1448.483	412.997	-340.260	1314.022	399.060	-204.099	1440.307	416.272	-222.800	1038.939	151.519	-108.915	1471.359	63.684	-301.825	1045.620	142.646	-179.252	1478.076	68.045	-232.875	1396.618	1185.082	-243.320	1409.912	1083.829	-246.997	1284.531	1250.935	-241.678	1079.068	67.820	-148.141	1571.487	47.698	-278.631	1450.952	531.231	-104.998	1516.362	581.477	-356.826	1398.270	576.706	-79.759	1480.909	621.801	-297.408	1381.044	520.626	-82.524	1485.935	564.636	-286.561	1214.770	153.693	-110.881	1456.746	160.490	-396.378	1148.706	195.620	-133.284	1462.766	155.194	-317.153	1397.038	1184.517	-186.522	1401.572	1186.339	-293.716
	2	0.15833	1385.263	758.116	-237.103	1376.473	753.209	-180.564	1394.053	763.022	-293.641	1300.134	409.865	-139.748	1431.129	416.423	-282.591	1055.710	149.492	-144.214	1479.934	66.196	-266.342	1420.684	829.532	-225.877	1419.121	825.851	-114.188	1422.247	833.213	-337.566	1244.260	860.864	-197.302	1244.613	859.762	-250.749	1311.534	405.911	-80.655	1452.566	413.173	-341.198	1325.459	398.939	-203.997	1444.080	416.953	-225.331	1049.739	154.603	-107.547	1471.701	63.672	-301.811	1056.200	145.617	-177.896	1478.588	68.171	-232.881	1404.748	1186.038	-244.406	1418.476	1084.835	-247.857	1292.336	1251.443	-242.987	1087.958	69.884	-146.788	1571.624	47.358	-278.568	1462.574	533.069	-105.923	1521.725	580.788	-359.385	1409.009	578.040	-80.656	1487.669	621.952	-299.847	1391.868	521.116	-83.146	1491.772	564.583	-289.167	1225.579	154.847	-109.970	1458.226	160.322	-396.705	1160.038	197.353	-132.156	1464.309	155.112	-317.485	1405.296	1185.619	-187.720	1409.586	1187.188	-294.703
	3	0.16667	1392.675	758.988	-238.361	1384.268	754.135	-181.760	1401.082	763.840	-294.962	1314.421	408.401	-140.033	1433.498	418.063	-283.391	1066.658	152.287	-142.894	1480.273	66.191	-266.336	1428.146	830.492	-227.479	1427.301	826.930	-115.887	1428.992	834.053	-339.072	1251.825	861.670	-197.720	1252.130	860.462	-251.193	1324.964	406.058	-80.835	1456.374	413.387	-341.967	1339.516	397.849	-203.931	1447.721	417.689	-227.892	1060.924	157.478	-106.200	1471.919	63.679	-301.778	1066.812	147.910	-176.512	1478.503	68.294	-232.831	1412.867	1187.105	-245.670	1426.919	1085.938	-248.829	1300.021	1252.283	-244.585	1097.993	72.241	-145.146	1571.693	47.124	-278.492	1474.162	535.070	-107.223	1526.860	580.051	-361.714	1419.430	579.209	-81.612	1493.954	622.371	-301.813	1403.699	522.030	-83.831	1497.226	564.803	-291.434	1236.749	155.997	-109.512	1459.349	160.235	-396.918	1171.260	199.273	-131.850	1465.033	155.216	-317.640	1413.556	1186.874	-189.333	1417.574	1188.106	-295.633
	4	0.17500	1399.985	759.853	-239.520	1391.957	755.061	-182.859	1408.014	764.644	-296.182	1328.557	407.535	-140.518	1435.884	419.568	-284.097	1077.940	154.899	-141.611	1480.576	66.177	-266.335	1435.482	831.437	-228.992	1435.331	828.010	-117.488	1435.632	834.864	-340.496	1259.259	862.427	-198.157	1259.499	861.156	-251.714	1338.529	406.307	-81.218	1459.892	413.617	-342.575	1353.759	397.527	-205.506	1452.317	418.491	-228.868	1072.502	160.116	-104.875	1472.032	63.686	-301.734	1077.667	150.247	-175.191	1478.251	68.442	-232.772	1420.603	1188.238	-246.758	1434.716	1087.073	-249.727	1308.011	1253.199	-246.247	1109.147	74.812	-143.254	1571.722	46.958	-278.420	1485.702	537.232	-108.895	1531.786	579.281	-363.784	1430.236	580.439	-83.191	1500.078	622.813	-302.792	1415.611	522.829	-85.427	1502.753	565.183	-292.670	1248.273	157.148	-109.398	1460.106	160.195	-397.023	1182.705	201.282	-131.657	1465.350	155.397	-317.743	1421.382	1188.126	-190.533	1425.229	1189.137	-296.618
	5	0.18333	1407.237	760.722	-240.621	1399.566	755.994	-183.905	1414.908	765.451	-297.337	1340.808	408.130	-141.134	1438.498	420.019	-284.686	1089.613	157.261	-140.367	1480.875	66.147	-266.345	1442.724	832.378	-230.422	1443.218	829.096	-118.986	1442.230	835.660	-341.859	1266.597	863.140	-198.618	1266.745	861.852	-252.297	1352.217	406.673	-81.763	1463.130	413.838	-343.033	1365.932	398.128	-206.978	1457.114	419.448	-228.057	1084.498	162.477	-103.585	1472.074	63.687	-301.683	1089.117	153.106	-174.029	1478.420	68.483	-232.740	1428.131	1189.410	-247.859	1442.296	1088.251	-250.768	1315.672	1254.218	-247.386	1121.331	77.475	-141.202	1571.733	46.833	-278.348	1497.175	539.535	-110.905	1536.533	578.488	-365.594	1441.455	582.087	-85.198	1506.001	623.018	-303.806	1427.104	523.846	-87.303	1508.200	565.065	-293.362	1260.162	158.289	-109.480	1460.524	160.171	-397.032	1194.914	203.177	-131.002	1465.856	155.510	-317.739	1428.958	1189.338	-191.596	1432.715	1190.275	-297.762
	6	0.19167	1414.464	761.591	-241.678	1407.116	756.926	-184.913	1421.812	766.256	-298.442	1353.410	408.279	-141.857	1441.302	419.779	-285.123	1101.732	159.303	-139.179	1481.194	66.101	-266.368	1449.898	833.320	-231.778	1450.962	830.194	-120.378	1448.835	836.446	-343.177	1273.871	863.832	-199.116	1273.890	862.557	-252.929	1366.006	407.160	-82.432	1466.126	414.032	-343.366	1377.984	397.885	-206.914	1461.704	420.614	-226.489	1096.926	164.522	-102.356	1472.080	63.682	-301.629	1101.132	155.946	-172.958	1478.999	68.432	-232.738	1435.720	1190.491	-249.372	1449.931	1089.334	-252.141	1323.094	1255.304	-248.123	1134.417	80.097	-139.111	1571.738	46.732	-278.266	1508.565	541.956	-113.196	1541.144	577.688	-367.161	1452.437	583.846	-87.315	1511.784	622.927	-305.274	1438.693	525.166	-88.823	1513.513	564.722	-294.104	1272.429	159.403	-109.607	1460.665	160.143	-396.967	1207.692	204.802	-130.108	1466.565	155.540	-317.666	1436.415	1190.479	-193.103	1440.421	1191.306	-299.270
